# xmcd
# Copyright (C) 1995-1998 Ti Kan
#
# Track frame offsets:
#       150
#       22942
#       48825
#       63523
#       77936
#       95248
#       111478
#       128333
#
# Disc length: 1885 seconds
#
# Revision: 0
# Processed by: cddbd v1.5.2PL0 Copyright (c) Steve Scherf et al.
# Submitted via: CD-Transfer v1.0
#
DISCID=64075b08
DTITLE=Various Albert - Albert-I-Tunes
DYEAR=07
DGENRE=
TTITLE0=Hai Bucato La Mia Vita - Adriano Celentano
TTITLE1=Duran Duran Falling Down
TTITLE2=Gianna Nannini Suicidio D'amore
TTITLE3=The Last Goodbye Pictures Of You
TTITLE4=Ligabue Niente Paura
TTITLE5=Negramaro L'immenso
TTITLE6=Tiziano Ferro E Fuori É Buio
TTITLE7=Kylie Minogue 2 Hearts
EXTD=
EXTT0=
EXTT1=
EXTT2=
EXTT3=
EXTT4=
EXTT5=
EXTT6=
EXTT7=
PLAYORDER=
